<svg width="800" height="800" viewBox="0 0 800 800" fill="none" xmlns="http://www.w3.org/2000/svg">
<path d="M358.907 251.436C368.907 241.914 369.294 226.09 359.77 216.092C350.247 206.093 334.424 205.707 324.426 215.23L358.907 251.436ZM149.426 381.896C139.427 391.42 139.041 407.243 148.564 417.24C158.086 427.24 173.91 427.626 183.908 418.103L149.426 381.896ZM183.908 381.896C173.91 372.373 158.086 372.76 148.564 382.76C139.041 392.756 139.427 408.58 149.426 418.103L183.908 381.896ZM324.426 584.77C334.424 594.293 350.247 593.906 359.77 583.906C369.294 573.91 368.907 558.086 358.907 548.563L324.426 584.77ZM166.667 375C152.86 375 141.667 386.193 141.667 400C141.667 413.806 152.86 425 166.667 425V375ZM633.334 425C647.14 425 658.334 413.806 658.334 400C658.334 386.193 647.14 375 633.334 375V425ZM324.426 215.23L149.426 381.896L183.908 418.103L358.907 251.436L324.426 215.23ZM149.426 418.103L324.426 584.77L358.907 548.563L183.908 381.896L149.426 418.103ZM166.667 425H633.334V375H166.667V425Z" fill="#939393"/>
</svg>
